<svg width="36" height="36" viewBox="0 0 36 36" fill="none" xmlns="http://www.w3.org/2000/svg">
<path d="M18 36C27.9411 36 36 27.9411 36 18C36 8.05888 27.9411 0 18 0C8.05888 0 0 8.05888 0 18C0 27.9411 8.05888 36 18 36Z" fill="#007AB9"/>
<path d="M28.7547 19.4485V26.8695H24.4521V19.9458C24.4521 18.2074 23.8309 17.0202 22.2731 17.0202C21.0843 17.0202 20.3781 17.8195 20.0662 18.5934C19.9529 18.87 19.9238 19.2541 19.9238 19.642V26.8692H15.6209C15.6209 26.8692 15.6787 15.1428 15.6209 13.9289H19.9241V15.7627C19.9154 15.7771 19.9032 15.7913 19.8955 15.805H19.9241V15.7627C20.4959 14.8829 21.5156 13.6251 23.8018 13.6251C26.6324 13.6251 28.7547 15.4746 28.7547 19.4485ZM11.1198 7.69128C9.64798 7.69128 8.68506 8.65742 8.68506 9.92677C8.68506 11.1692 9.62006 12.1632 11.0633 12.1632H11.0912C12.5919 12.1632 13.525 11.1692 13.525 9.92677C13.4965 8.65742 12.5919 7.69128 11.1198 7.69128ZM8.94079 26.8695H13.242V13.9289H8.94079V26.8695Z" fill="#F1F2F2"/>
</svg>
