<?xml version="1.0" standalone="no"?>
<!DOCTYPE svg PUBLIC "-//W3C//DTD SVG 20010904//EN"
 "http://www.w3.org/TR/2001/REC-SVG-20010904/DTD/svg10.dtd">
<svg version="1.0" xmlns="http://www.w3.org/2000/svg"
 width="500.000000pt" height="500.000000pt" viewBox="0 0 500.000000 500.000000"
 preserveAspectRatio="xMidYMid meet">

<g transform="translate(0.000000,500.000000) scale(0.100000,-0.100000)"
fill="#000000" stroke="none">
<path d="M2496 3627 c-8 -35 -40 -50 -87 -44 -22 3 -39 3 -39 0 0 -13 52 -53
61 -47 5 3 16 0 24 -6 18 -15 57 -9 63 9 3 9 0 11 -9 7 -9 -5 -8 -3 1 6 17 14
17 56 2 84 -8 14 -10 13 -16 -9z m6 -39 c-8 -8 -9 -4 -5 13 4 13 8 18 11 10 2
-7 -1 -18 -6 -23z"/>
<path d="M2168 3452 l-46 -27 19 -37 19 -38 48 33 c51 36 59 62 27 83 -18 11
-26 10 -67 -14z"/>
<path d="M2607 3469 c-31 -18 -20 -52 25 -82 23 -15 47 -27 53 -27 6 0 18 15
27 33 16 33 16 33 -16 51 -49 29 -71 35 -89 25z"/>
<path d="M3032 3196 l-20 -35 58 -35 c58 -34 59 -34 66 -13 3 12 12 29 20 37
12 14 6 20 -45 48 l-59 32 -20 -34z"/>
<path d="M2027 3130 l-48 -15 3 -43 c2 -51 26 -77 62 -68 30 7 39 33 34 97
l-3 44 -48 -15z"/>
<path d="M2770 3095 c0 -68 13 -95 44 -95 31 0 43 16 50 68 4 35 2 44 -12 48
-15 5 -48 19 -74 32 -5 2 -8 -22 -8 -53z"/>
<path d="M3620 3119 c0 -5 5 -7 10 -4 6 3 10 8 10 11 0 2 -4 4 -10 4 -5 0 -10
-5 -10 -11z"/>
<path d="M3583 3103 c-7 -2 -13 -11 -13 -18 0 -7 -8 -23 -19 -36 -15 -19 -27
-22 -71 -21 l-54 1 41 -39 c30 -28 48 -38 68 -35 34 3 81 39 76 57 -2 7 -5 27
-7 43 -3 22 -1 26 6 15 6 -9 10 -10 10 -3 0 6 -5 15 -10 18 -6 4 -8 11 -5 16
7 10 -2 11 -22 2z m21 -91 c3 -5 -1 -9 -9 -9 -8 0 -12 4 -9 9 3 4 7 8 9 8 2 0
6 -4 9 -8z m-31 -23 c5 -3 2 -9 -5 -12 -9 -3 -14 3 -15 15 -1 11 1 16 5 12 4
-5 11 -12 15 -15z"/>
<path d="M1501 3064 c0 -11 3 -14 6 -6 3 7 2 16 -1 19 -3 4 -6 -2 -5 -13z"/>
<path d="M3625 3060 c-14 -16 -16 -23 -7 -32 7 -7 13 -9 13 -5 1 4 2 10 3 15
1 4 5 13 10 20 14 22 0 23 -19 2z"/>
<path d="M1422 3050 c-7 -11 -18 -20 -26 -20 -7 0 -19 -6 -25 -14 -11 -13 -5
-14 35 -10 57 6 58 6 50 39 -8 30 -17 32 -34 5z"/>
<path d="M1476 3025 c-9 -26 -7 -32 5 -12 6 10 9 21 6 23 -2 3 -7 -2 -11 -11z"/>
<path d="M1411 2986 c-9 -11 -8 -15 5 -20 12 -5 15 -2 10 10 -5 13 -2 15 14
11 11 -3 18 -1 14 4 -8 13 -30 11 -43 -5z"/>
<path d="M1358 2983 c6 -2 18 -2 25 0 6 3 1 5 -13 5 -14 0 -19 -2 -12 -5z"/>
<path d="M1375 2960 c3 -5 8 -10 11 -10 2 0 4 5 4 10 0 6 -5 10 -11 10 -5 0
-7 -4 -4 -10z"/>
<path d="M3122 2910 c-12 -5 -27 -22 -33 -37 -8 -22 -6 -32 9 -52 38 -52 112
-30 112 33 0 48 -41 74 -88 56z"/>
<path d="M1646 2888 c-19 -27 -20 -47 -3 -70 20 -26 63 -33 92 -14 49 32 21
106 -40 106 -24 0 -39 -7 -49 -22z"/>
<path d="M2384 2779 c-4 -7 -3 -9 4 -5 5 3 13 0 15 -6 4 -9 6 -10 6 -1 1 17
-16 25 -25 12z"/>
<path d="M2366 2758 c5 -8 2 -9 -10 -5 -9 4 -15 3 -12 -2 7 -11 -22 -23 -35
-15 -5 3 -8 0 -7 -7 2 -7 -6 -13 -16 -14 -20 0 -36 -25 -16 -25 6 0 8 5 5 10
-3 6 -2 10 4 10 5 0 13 -5 16 -10 10 -16 -23 -24 -40 -10 -12 10 -15 9 -15 -4
0 -9 -7 -17 -15 -17 -8 -1 -20 -2 -27 -3 -14 -1 -31 -56 -17 -56 5 0 9 5 9 10
0 6 7 10 15 10 25 0 65 22 58 33 -3 6 -1 7 6 3 6 -4 31 5 56 21 43 27 56 43
35 43 -5 0 -10 -4 -10 -9 0 -15 -29 -21 -36 -8 -4 7 -3 9 1 4 5 -4 16 0 26 9
10 9 24 14 32 11 8 -3 19 -2 26 2 8 5 3 12 -14 19 -20 9 -25 9 -19 0z"/>
<path d="M2736 2654 c-45 -25 -60 -46 -51 -73 6 -21 78 -56 94 -47 12 8 13 53
3 106 l-7 36 -39 -22z"/>
<path d="M3410 2494 c0 -8 -3 -13 -8 -10 -6 4 -7 -20 -3 -82 1 -7 6 -10 11 -7
6 3 10 1 10 -4 0 -6 10 -9 23 -7 12 2 21 9 19 16 -2 8 3 10 15 6 9 -4 14 -4
10 0 -4 4 -2 13 5 21 6 8 7 13 2 12 -19 -3 -29 2 -17 9 8 5 6 14 -9 32 -11 14
-17 19 -13 13 4 -8 0 -13 -10 -13 -9 0 -14 4 -11 9 3 5 -1 11 -9 15 -9 3 -15
0 -15 -10z"/>
<path d="M3370 2440 c0 -5 5 -10 10 -10 6 0 10 5 10 10 0 6 -4 10 -10 10 -5 0
-10 -4 -10 -10z"/>
<path d="M1437 2416 c-16 -12 -16 -14 -2 -20 9 -3 13 -2 10 3 -3 6 3 14 12 20
10 6 14 10 8 10 -5 0 -18 -6 -28 -13z"/>
<path d="M2782 2320 c0 -19 2 -27 5 -17 2 9 2 25 0 35 -3 9 -5 1 -5 -18z"/>
<path d="M1438 2263 l-38 -4 0 -83 c0 -84 8 -106 41 -106 37 0 49 27 49 116 0
46 -3 83 -7 82 -5 -1 -25 -3 -45 -5z"/>
<path d="M3359 2265 c-3 -2 -3 -20 -1 -40 4 -32 7 -35 37 -35 29 0 34 4 40 31
4 17 5 32 3 33 -7 7 -75 16 -79 11z"/>
<path d="M2891 2164 c-35 -19 -121 -71 -192 -115 -70 -43 -130 -79 -132 -79
-3 0 -29 -14 -57 -32 -46 -29 -68 -60 -58 -87 1 -6 57 23 122 64 66 41 124 75
129 75 5 0 35 17 66 38 31 21 86 55 123 76 64 35 90 68 71 87 -5 5 -36 -7 -72
-27z"/>
<path d="M1646 2088 c-32 -45 -6 -98 48 -98 57 0 83 51 50 98 -10 15 -25 22
-49 22 -24 0 -39 -7 -49 -22z"/>
<path d="M3106 2094 c-25 -24 -20 -69 10 -93 34 -27 50 -26 79 4 26 25 27 45
7 83 -15 27 -72 31 -96 6z"/>
<path d="M1995 1904 c-11 -12 -15 -30 -13 -62 3 -44 4 -45 48 -58 25 -8 46
-14 48 -14 9 0 0 128 -10 138 -17 17 -54 15 -73 -4z"/>
<path d="M2780 1901 c-5 -11 -10 -45 -10 -76 0 -50 2 -56 18 -50 9 4 32 11 50
17 29 8 32 13 32 46 0 21 -7 48 -16 60 -19 27 -60 29 -74 3z"/>
<path d="M3148 1841 c-18 -15 -56 -41 -85 -58 l-52 -29 19 -30 c11 -16 23 -29
27 -29 5 0 35 13 68 29 33 16 71 34 85 40 35 16 40 68 8 90 -30 21 -32 21 -70
-13z"/>
<path d="M1473 1813 c-17 -9 -37 -29 -44 -45 -16 -38 -43 -51 -91 -44 -38 6
-39 6 -27 -16 20 -39 61 -67 89 -61 72 16 120 76 120 149 0 38 -2 39 -47 17z"/>
<path d="M3608 1813 c-25 -10 -38 -22 -38 -33 0 -10 -12 -28 -27 -40 -23 -18
-36 -21 -70 -16 -34 4 -43 2 -43 -9 0 -8 0 -17 0 -20 0 -3 3 -5 8 -6 14 -1 32
-21 26 -30 -7 -13 42 -22 79 -15 17 4 45 19 60 35 31 32 58 106 48 132 -5 15
-9 16 -43 2z"/>
<path d="M1710 1803 c0 -9 -7 -24 -15 -33 -15 -16 -12 -20 37 -48 l53 -30 22
27 c12 14 22 29 23 33 0 7 -102 68 -114 68 -3 0 -6 -8 -6 -17z"/>
<path d="M2393 1703 c-32 -28 -36 -56 -12 -86 32 -42 84 -30 101 23 6 17 -18
70 -31 70 -5 0 -16 2 -24 5 -7 3 -23 -2 -34 -12z"/>
<path d="M1929 1662 c-31 -26 -31 -78 2 -103 31 -24 54 -24 79 1 29 29 26 74
-6 99 -33 26 -45 26 -75 3z"/>
<path d="M2831 1654 c-12 -15 -21 -34 -21 -44 0 -10 9 -29 21 -44 40 -50 119
-21 119 44 0 65 -79 94 -119 44z"/>
<path d="M2645 1542 c-52 -28 -68 -59 -45 -88 17 -20 46 -18 91 8 44 24 45 30
21 75 l-17 32 -50 -27z"/>
<path d="M2137 1525 l-16 -35 37 -25 c55 -37 102 -30 102 17 0 18 -73 78 -95
78 -6 0 -19 -16 -28 -35z"/>
<path d="M2538 1269 c-21 -11 -38 -26 -38 -33 0 -7 -10 -26 -22 -41 -19 -25
-26 -27 -70 -22 -46 6 -48 5 -48 -18 0 -14 5 -25 12 -25 6 0 19 -7 29 -16 40
-36 137 -4 169 57 15 26 25 119 14 119 -5 -1 -26 -10 -46 -21z"/>
</g>
</svg>
