<svg width="96" height="96" viewBox="0 0 96 96" fill="none" xmlns="http://www.w3.org/2000/svg">
<path d="M38.6814 22.9565H57.3217L61.1403 15.6335C61.2358 15.4665 61.2939 15.2808 61.3107 15.0892C61.3275 14.8976 61.3026 14.7046 61.2377 14.5235C61.1728 14.3425 61.0694 14.1776 60.9347 14.0403C60.8 13.903 60.6371 13.7966 60.4573 13.7282L55.1235 11.6924L55.8492 10.2372C55.9506 10.0342 55.9984 9.80873 55.9882 9.58209C55.978 9.35545 55.9101 9.13518 55.7908 8.94218C55.6716 8.74918 55.505 8.58984 55.3069 8.4793C55.1088 8.36876 54.8857 8.31067 54.6588 8.31055H41.3443C41.1173 8.31044 40.8941 8.36836 40.6958 8.47881C40.4975 8.58926 40.3307 8.74858 40.2113 8.94161C40.0919 9.13465 40.0239 9.35501 40.0136 9.58176C40.0033 9.80851 40.0512 10.0341 40.1527 10.2372L40.8796 11.6924L35.5445 13.7229C35.3641 13.7912 35.2006 13.898 35.0655 14.0357C34.9304 14.1734 34.8268 14.3389 34.762 14.5206C34.6972 14.7024 34.6726 14.896 34.69 15.0882C34.7074 15.2803 34.7664 15.4664 34.8628 15.6335L38.6814 22.9565Z" fill="url(#paint0_linear_422_50)"/>
<path d="M58.7723 21.623H37.2337C37.2337 21.623 20.3105 46.9144 20.3105 62.4783C20.3105 71.1961 23.9075 85.8242 48.003 85.8242C72.0985 85.8242 75.6955 71.1961 75.6955 62.4783C75.6955 46.9144 58.7723 21.623 58.7723 21.623Z" fill="url(#paint1_linear_422_50)"/>
<g filter="url(#filter0_bi_422_50)">
<path d="M62.6114 27.1309H33.394C33.394 27.1309 10.4375 54.2613 10.4375 70.9569C10.4375 80.3086 15.3168 96.0004 48.0027 96.0004C80.6886 96.0004 85.5679 80.3086 85.5679 70.9569C85.5679 54.2613 62.6114 27.1309 62.6114 27.1309Z" fill="#F1F1F1" fill-opacity="0.1"/>
<path d="M62.6114 27.1309H33.394C33.394 27.1309 10.4375 54.2613 10.4375 70.9569C10.4375 80.3086 15.3168 96.0004 48.0027 96.0004C80.6886 96.0004 85.5679 80.3086 85.5679 70.9569C85.5679 54.2613 62.6114 27.1309 62.6114 27.1309Z" fill="url(#paint2_linear_422_50)" fill-opacity="0.2"/>
<path d="M33.6743 27.7309H62.3312C62.3544 27.7588 62.3798 27.7894 62.4073 27.8226C62.5741 28.0238 62.8193 28.3216 63.1317 28.707C63.7565 29.4779 64.6499 30.5987 65.7224 31.9962C67.8678 34.7917 70.7274 38.6913 73.5859 43.109C76.4456 47.5284 79.297 52.4556 81.4318 57.3073C83.5709 62.1688 84.9679 66.9052 84.9679 70.9569C84.9679 75.5337 83.7752 81.6118 78.6271 86.5527C73.4744 91.4979 64.2591 95.4004 48.0027 95.4004C31.7463 95.4004 22.5311 91.4979 17.3783 86.5527C12.2302 81.6118 11.0375 75.5337 11.0375 70.9569C11.0375 66.9052 12.4346 62.1688 14.5736 57.3073C16.7084 52.4556 19.5599 47.5284 22.4195 43.109C25.278 38.6913 28.1376 34.7917 30.2831 31.9962C31.3555 30.5987 32.2489 29.4779 32.8737 28.707C33.1861 28.3216 33.4313 28.0238 33.5981 27.8226C33.6256 27.7894 33.6511 27.7588 33.6743 27.7309Z" stroke="url(#paint3_linear_422_50)" stroke-opacity="0.1" stroke-width="1.2"/>
</g>
<g filter="url(#filter1_bi_422_50)">
<path d="M33.3917 22.9565H62.6091L68.5945 11.4783C68.7441 11.2165 68.8352 10.9254 68.8616 10.6251C68.8879 10.3247 68.8489 10.0222 68.7471 9.73842C68.6454 9.45461 68.4833 9.19621 68.2722 8.98101C68.061 8.76581 67.8057 8.59892 67.5239 8.49183L59.1635 5.30087L60.3009 3.01983C60.4599 2.70173 60.5349 2.3483 60.5189 1.99306C60.5029 1.63782 60.3964 1.29256 60.2095 0.990041C60.0226 0.687522 59.7615 0.43778 59.451 0.26451C59.1404 0.0912398 58.7908 0.000190076 58.4352 2.26751e-07H37.5656C37.2098 -0.000165599 36.8599 0.0906245 36.5491 0.263747C36.2383 0.43687 35.9769 0.686578 35.7898 0.989153C35.6026 1.29173 35.4959 1.63712 35.4798 1.99254C35.4637 2.34795 35.5388 2.70157 35.6978 3.01983L36.8373 5.30087L28.4748 8.48348C28.192 8.59058 27.9358 8.75787 27.7241 8.97378C27.5123 9.18968 27.3499 9.44903 27.2483 9.73387C27.1467 10.0187 27.1082 10.3222 27.1355 10.6234C27.1627 10.9246 27.2552 11.2163 27.4063 11.4783L33.3917 22.9565Z" fill="#F1F1F1" fill-opacity="0.1"/>
<path d="M33.3917 22.9565H62.6091L68.5945 11.4783C68.7441 11.2165 68.8352 10.9254 68.8616 10.6251C68.8879 10.3247 68.8489 10.0222 68.7471 9.73842C68.6454 9.45461 68.4833 9.19621 68.2722 8.98101C68.061 8.76581 67.8057 8.59892 67.5239 8.49183L59.1635 5.30087L60.3009 3.01983C60.4599 2.70173 60.5349 2.3483 60.5189 1.99306C60.5029 1.63782 60.3964 1.29256 60.2095 0.990041C60.0226 0.687522 59.7615 0.43778 59.451 0.26451C59.1404 0.0912398 58.7908 0.000190076 58.4352 2.26751e-07H37.5656C37.2098 -0.000165599 36.8599 0.0906245 36.5491 0.263747C36.2383 0.43687 35.9769 0.686578 35.7898 0.989153C35.6026 1.29173 35.4959 1.63712 35.4798 1.99254C35.4637 2.34795 35.5388 2.70157 35.6978 3.01983L36.8373 5.30087L28.4748 8.48348C28.192 8.59058 27.9358 8.75787 27.7241 8.97378C27.5123 9.18968 27.3499 9.44903 27.2483 9.73387C27.1467 10.0187 27.1082 10.3222 27.1355 10.6234C27.1627 10.9246 27.2552 11.2163 27.4063 11.4783L33.3917 22.9565Z" fill="url(#paint4_linear_422_50)" fill-opacity="0.2"/>
<path d="M68.0736 11.1805L68.0678 11.1906L68.0625 11.2008L62.2453 22.3565H33.7555L27.9383 11.2008L27.9324 11.1895L27.926 11.1784C27.8183 10.9917 27.7525 10.7839 27.733 10.5693C27.7136 10.3547 27.741 10.1385 27.8134 9.9355C27.8858 9.73255 28.0015 9.54776 28.1524 9.39393C28.3033 9.2401 28.4858 9.1209 28.6873 9.0446L28.6883 9.04424L37.0507 5.86163L37.6703 5.62582L37.374 5.03274L36.2346 2.75169L36.2345 2.75163C36.1212 2.52487 36.0677 2.27292 36.0792 2.01968C36.0907 1.76645 36.1667 1.52036 36.3 1.30477C36.4334 1.08918 36.6196 0.911269 36.8411 0.78792L36.5491 0.263747L36.8411 0.78792C37.0625 0.66457 37.3119 0.599882 37.5653 0.6H37.5656H58.4352C58.6885 0.600169 58.9374 0.665041 59.1586 0.788463C59.3799 0.911918 59.5659 1.08986 59.6991 1.3054C59.8322 1.52095 59.9081 1.76695 59.9195 2.02005C59.9309 2.27316 59.8775 2.52498 59.7642 2.75163L59.764 2.75209L58.6266 5.03313L58.3313 5.62542L58.9496 5.86143L67.3099 9.05238L67.3108 9.0527C67.5116 9.129 67.6935 9.24791 67.8439 9.40124C67.9944 9.55457 68.1098 9.73868 68.1823 9.9409C68.2548 10.1431 68.2826 10.3586 68.2639 10.5726C68.2451 10.7866 68.1802 10.994 68.0736 11.1805Z" stroke="url(#paint5_linear_422_50)" stroke-opacity="0.1" stroke-width="1.2"/>
</g>
<g filter="url(#filter2_i_422_50)">
<path d="M58.0575 62.179C56.1805 60.4309 53.9387 59.1214 51.4941 58.3452L49.597 57.621V48.5365C52.2696 48.7594 54.8936 49.382 57.3814 50.3835L59.2054 45.8172C56.1537 44.5656 52.9021 43.8721 49.6054 43.7699V39.6523H46.2767V43.8388C43.6369 43.9946 41.1037 44.9349 39.0015 46.5393C38.1459 47.2102 37.4578 48.0707 36.9913 49.0528C36.5249 50.035 36.2929 51.112 36.3135 52.1991C36.2495 54.1705 36.9187 56.0957 38.1918 57.6023C39.8518 59.3185 41.9025 60.6073 44.1688 61.3588L46.2558 62.131V71.4659C44.5198 71.4184 42.7951 71.1712 41.1156 70.7292C39.3891 70.3196 37.7103 69.73 36.1069 68.9699V74.2332C39.3288 75.5463 42.7834 76.1924 46.2621 76.1323V81.3915H49.5824V75.9821C52.3662 75.8297 55.0341 74.8176 57.2186 73.0854C58.0731 72.3491 58.7535 71.4324 59.2107 70.4013C59.668 69.3702 59.8907 68.2505 59.8628 67.123C59.9147 65.3048 59.2688 63.5358 58.0575 62.179ZM46.2767 56.3918C45.09 55.9922 43.9982 55.3529 43.069 54.5136C42.4744 53.87 42.1566 53.0185 42.1841 52.1428C42.1756 51.7065 42.2649 51.2738 42.4455 50.8766C42.626 50.4793 42.8933 50.1276 43.2276 49.8471C44.104 49.1568 45.16 48.7323 46.2704 48.6242L46.2767 56.3918ZM49.597 71.2656V63.3059C50.8263 63.6936 51.9727 64.3064 52.9779 65.1132C53.3077 65.4145 53.5686 65.7834 53.7429 66.1947C53.9172 66.606 54.0008 67.05 53.988 67.4965C53.9908 69.5584 52.5271 70.8148 49.597 71.2656Z" fill="white" fill-opacity="0.16"/>
</g>
<g filter="url(#filter3_i_422_50)">
<path d="M62.6095 22.9565H33.3921V27.1305H62.6095V22.9565Z" fill="url(#paint6_linear_422_50)"/>
</g>
<g filter="url(#filter4_i_422_50)">
<path d="M41.0269 13.6757L36.8384 5.30078L32.917 6.79296L37.2996 15.5415C37.4208 15.7888 37.5898 16.0097 37.7967 16.1914C38.0037 16.3732 38.2446 16.5121 38.5056 16.6003C38.7665 16.6885 39.0423 16.7241 39.3171 16.7052C39.5919 16.6863 39.8602 16.6131 40.1066 16.49C40.3529 16.3669 40.5725 16.1962 40.7526 15.9878C40.9327 15.7794 41.0698 15.5374 41.1559 15.2758C41.2421 15.0142 41.2756 14.7381 41.2545 14.4635C41.2334 14.1889 41.1582 13.9212 41.0332 13.6757H41.0269Z" fill="url(#paint7_linear_422_50)"/>
</g>
<g filter="url(#filter5_i_422_50)">
<path d="M54.9764 13.6757L59.1649 5.30078L63.0863 6.79296L58.7037 15.5415C58.5825 15.7888 58.4135 16.0097 58.2066 16.1914C57.9996 16.3732 57.7587 16.5121 57.4977 16.6003C57.2368 16.6885 56.961 16.7241 56.6862 16.7052C56.4114 16.6863 56.1431 16.6131 55.8967 16.49C55.6504 16.3669 55.4308 16.1962 55.2507 15.9878C55.0706 15.7794 54.9335 15.5374 54.8474 15.2758C54.7612 15.0142 54.7277 14.7381 54.7488 14.4635C54.7699 14.1889 54.8451 13.9212 54.9701 13.6757H54.9764Z" fill="url(#paint8_linear_422_50)"/>
</g>
<defs>
<filter id="filter0_bi_422_50" x="-13.5625" y="3.13086" width="123.13" height="116.87" filterUnits="userSpaceOnUse" color-interpolation-filters="sRGB">
<feFlood flood-opacity="0" result="BackgroundImageFix"/>
<feGaussianBlur in="BackgroundImageFix" stdDeviation="12"/>
<feComposite in2="SourceAlpha" operator="in" result="effect1_backgroundBlur_422_50"/>
<feBlend mode="normal" in="SourceGraphic" in2="effect1_backgroundBlur_422_50" result="shape"/>
<feColorMatrix in="SourceAlpha" type="matrix" values="0 0 0 0 0 0 0 0 0 0 0 0 0 0 0 0 0 0 127 0" result="hardAlpha"/>
<feOffset dy="8"/>
<feGaussianBlur stdDeviation="6"/>
<feComposite in2="hardAlpha" operator="arithmetic" k2="-1" k3="1"/>
<feColorMatrix type="matrix" values="0 0 0 0 1 0 0 0 0 1 0 0 0 0 1 0 0 0 0.4 0"/>
<feBlend mode="normal" in2="shape" result="effect2_innerShadow_422_50"/>
</filter>
<filter id="filter1_bi_422_50" x="3.12695" y="-24" width="89.7427" height="70.9565" filterUnits="userSpaceOnUse" color-interpolation-filters="sRGB">
<feFlood flood-opacity="0" result="BackgroundImageFix"/>
<feGaussianBlur in="BackgroundImageFix" stdDeviation="12"/>
<feComposite in2="SourceAlpha" operator="in" result="effect1_backgroundBlur_422_50"/>
<feBlend mode="normal" in="SourceGraphic" in2="effect1_backgroundBlur_422_50" result="shape"/>
<feColorMatrix in="SourceAlpha" type="matrix" values="0 0 0 0 0 0 0 0 0 0 0 0 0 0 0 0 0 0 127 0" result="hardAlpha"/>
<feOffset dy="8"/>
<feGaussianBlur stdDeviation="6"/>
<feComposite in2="hardAlpha" operator="arithmetic" k2="-1" k3="1"/>
<feColorMatrix type="matrix" values="0 0 0 0 1 0 0 0 0 1 0 0 0 0 1 0 0 0 0.4 0"/>
<feBlend mode="normal" in2="shape" result="effect2_innerShadow_422_50"/>
</filter>
<filter id="filter2_i_422_50" x="36.1069" y="39.6523" width="23.7588" height="49.739" filterUnits="userSpaceOnUse" color-interpolation-filters="sRGB">
<feFlood flood-opacity="0" result="BackgroundImageFix"/>
<feBlend mode="normal" in="SourceGraphic" in2="BackgroundImageFix" result="shape"/>
<feColorMatrix in="SourceAlpha" type="matrix" values="0 0 0 0 0 0 0 0 0 0 0 0 0 0 0 0 0 0 127 0" result="hardAlpha"/>
<feOffset dy="8"/>
<feGaussianBlur stdDeviation="4"/>
<feComposite in2="hardAlpha" operator="arithmetic" k2="-1" k3="1"/>
<feColorMatrix type="matrix" values="0 0 0 0 1 0 0 0 0 1 0 0 0 0 1 0 0 0 0.4 0"/>
<feBlend mode="normal" in2="shape" result="effect1_innerShadow_422_50"/>
</filter>
<filter id="filter3_i_422_50" x="33.3921" y="22.9565" width="29.2173" height="12.1738" filterUnits="userSpaceOnUse" color-interpolation-filters="sRGB">
<feFlood flood-opacity="0" result="BackgroundImageFix"/>
<feBlend mode="normal" in="SourceGraphic" in2="BackgroundImageFix" result="shape"/>
<feColorMatrix in="SourceAlpha" type="matrix" values="0 0 0 0 0 0 0 0 0 0 0 0 0 0 0 0 0 0 127 0" result="hardAlpha"/>
<feOffset dy="8"/>
<feGaussianBlur stdDeviation="4"/>
<feComposite in2="hardAlpha" operator="arithmetic" k2="-1" k3="1"/>
<feColorMatrix type="matrix" values="0 0 0 0 1 0 0 0 0 1 0 0 0 0 1 0 0 0 0.4 0"/>
<feBlend mode="normal" in2="shape" result="effect1_innerShadow_422_50"/>
</filter>
<filter id="filter4_i_422_50" x="32.917" y="5.30078" width="8.34351" height="19.4094" filterUnits="userSpaceOnUse" color-interpolation-filters="sRGB">
<feFlood flood-opacity="0" result="BackgroundImageFix"/>
<feBlend mode="normal" in="SourceGraphic" in2="BackgroundImageFix" result="shape"/>
<feColorMatrix in="SourceAlpha" type="matrix" values="0 0 0 0 0 0 0 0 0 0 0 0 0 0 0 0 0 0 127 0" result="hardAlpha"/>
<feOffset dy="8"/>
<feGaussianBlur stdDeviation="4"/>
<feComposite in2="hardAlpha" operator="arithmetic" k2="-1" k3="1"/>
<feColorMatrix type="matrix" values="0 0 0 0 1 0 0 0 0 1 0 0 0 0 1 0 0 0 0.4 0"/>
<feBlend mode="normal" in2="shape" result="effect1_innerShadow_422_50"/>
</filter>
<filter id="filter5_i_422_50" x="54.7427" y="5.30078" width="8.34375" height="19.4094" filterUnits="userSpaceOnUse" color-interpolation-filters="sRGB">
<feFlood flood-opacity="0" result="BackgroundImageFix"/>
<feBlend mode="normal" in="SourceGraphic" in2="BackgroundImageFix" result="shape"/>
<feColorMatrix in="SourceAlpha" type="matrix" values="0 0 0 0 0 0 0 0 0 0 0 0 0 0 0 0 0 0 127 0" result="hardAlpha"/>
<feOffset dy="8"/>
<feGaussianBlur stdDeviation="4"/>
<feComposite in2="hardAlpha" operator="arithmetic" k2="-1" k3="1"/>
<feColorMatrix type="matrix" values="0 0 0 0 1 0 0 0 0 1 0 0 0 0 1 0 0 0 0.4 0"/>
<feBlend mode="normal" in2="shape" result="effect1_innerShadow_422_50"/>
</filter>
<linearGradient id="paint0_linear_422_50" x1="35.7942" y1="11.2397" x2="63.6104" y2="18.2646" gradientUnits="userSpaceOnUse">
<stop stop-color="#8AE6CF"/>
<stop offset="1" stop-color="#7C3AE7"/>
</linearGradient>
<linearGradient id="paint1_linear_422_50" x1="22.6183" y1="34.4633" x2="83.2861" y2="41.7323" gradientUnits="userSpaceOnUse">
<stop stop-color="#8AE6CF"/>
<stop offset="1" stop-color="#7C3AE7"/>
</linearGradient>
<linearGradient id="paint2_linear_422_50" x1="13.5679" y1="40.9048" x2="95.1728" y2="53.2692" gradientUnits="userSpaceOnUse">
<stop stop-color="#66FECB"/>
<stop offset="1" stop-color="#8940FF"/>
</linearGradient>
<linearGradient id="paint3_linear_422_50" x1="12.7853" y1="30.2613" x2="85.5679" y2="30.2613" gradientUnits="userSpaceOnUse">
<stop stop-color="#C8A6FF"/>
<stop offset="1" stop-color="#69CFB5"/>
</linearGradient>
<linearGradient id="paint4_linear_422_50" x1="28.8662" y1="4.59131" x2="72.4661" y2="15.6023" gradientUnits="userSpaceOnUse">
<stop stop-color="#66FECB"/>
<stop offset="1" stop-color="#8940FF"/>
</linearGradient>
<linearGradient id="paint5_linear_422_50" x1="28.4314" y1="1.04348" x2="68.8696" y2="1.04348" gradientUnits="userSpaceOnUse">
<stop stop-color="#C8A6FF"/>
<stop offset="1" stop-color="#69CFB5"/>
</linearGradient>
<linearGradient id="paint6_linear_422_50" x1="34.6095" y1="23.7913" x2="51.2985" y2="40.0168" gradientUnits="userSpaceOnUse">
<stop stop-color="#8AE6CF"/>
<stop offset="1" stop-color="#7C3AE7"/>
</linearGradient>
<linearGradient id="paint7_linear_422_50" x1="33.2646" y1="7.58265" x2="42.4407" y2="8.51465" gradientUnits="userSpaceOnUse">
<stop stop-color="#8AE6CF"/>
<stop offset="1" stop-color="#7C3AE7"/>
</linearGradient>
<linearGradient id="paint8_linear_422_50" x1="55.0903" y1="7.58265" x2="64.2664" y2="8.51465" gradientUnits="userSpaceOnUse">
<stop stop-color="#8AE6CF"/>
<stop offset="1" stop-color="#7C3AE7"/>
</linearGradient>
</defs>
</svg>
