<svg width="36" height="36" viewBox="0 0 36 36" fill="none" xmlns="http://www.w3.org/2000/svg">
<g clip-path="url(#clip0_403_98)">
<path d="M18.0003 35.9999C27.9414 35.9999 36.0002 27.9411 36.0002 18.0001C36.0002 8.05905 27.9414 0.000244141 18.0003 0.000244141C8.05929 0.000244141 0.000488281 8.05905 0.000488281 18.0001C0.000488281 27.9411 8.05929 35.9999 18.0003 35.9999Z" fill="#55ACEE"/>
<path d="M29.0257 12.9362C28.2544 13.2782 27.4246 13.5096 26.5544 13.6129C27.4429 13.0806 28.1247 12.2383 28.4466 11.233C27.6152 11.7262 26.694 12.084 25.7144 12.2768C24.9296 11.4409 23.8114 10.9186 22.5731 10.9186C20.1975 10.9186 18.2707 12.8454 18.2707 15.221C18.2707 15.5583 18.3089 15.8865 18.3827 16.2016C14.807 16.0222 11.6365 14.3095 9.5143 11.7057C9.14402 12.341 8.93161 13.0806 8.93161 13.8689C8.93161 15.3613 9.69174 16.6787 10.8456 17.4501C10.1406 17.4279 9.47676 17.2345 8.89696 16.9114C8.89664 16.9296 8.89663 16.9479 8.89663 16.9659C8.89663 19.0506 10.3803 20.7893 12.3482 21.1843C11.9875 21.2831 11.6067 21.3354 11.2149 21.3354C10.937 21.3354 10.6678 21.3088 10.4053 21.2587C10.9527 22.9677 12.5413 24.2117 14.4245 24.2466C12.9517 25.4008 11.0968 26.0884 9.08049 26.0884C8.73396 26.0884 8.39063 26.0682 8.05469 26.0281C9.95773 27.2493 12.2198 27.9613 14.6494 27.9613C22.5632 27.9613 26.891 21.4054 26.891 15.7193C26.891 15.5329 26.8868 15.3471 26.8785 15.163C27.7198 14.5565 28.4491 13.799 29.0257 12.9362Z" fill="#F1F2F2"/>
</g>
<defs>
<clipPath id="clip0_403_98">
<rect width="36" height="36" fill="white" transform="translate(0 0.000244141)"/>
</clipPath>
</defs>
</svg>
